<?xml version="1.0" encoding="UTF-8" standalone="no"?>
<svg
   xmlns:dc="http://purl.org/dc/elements/1.1/"
   xmlns:cc="http://creativecommons.org/ns#"
   xmlns:rdf="http://www.w3.org/1999/02/22-rdf-syntax-ns#"
   xmlns:svg="http://www.w3.org/2000/svg"
   xmlns="http://www.w3.org/2000/svg"
   id="svg6288"
   version="1.1"
   viewBox="0 0 161.02542 34.237085"
   height="34.237083"
   width="161.02542">
  <defs
     id="defs6282" />
  <metadata
     id="metadata6285">
    <rdf:RDF>
      <cc:Work
         rdf:about="">
        <dc:format>image/svg+xml</dc:format>
        <dc:type
           rdf:resource="http://purl.org/dc/dcmitype/StillImage" />
        <dc:title></dc:title>
      </cc:Work>
    </rdf:RDF>
  </metadata>
  <g
     transform="translate(106.21509,132.86854)"
     id="layer1">
    <g
       id="g6262"
       style="display:inline"
       transform="matrix(0.26458333,0,0,0.26458333,-102.59299,-131.79092)">
      <rect
         style="fill:#000000;fill-opacity:0;stroke:none;stroke-width:9.7782526;stroke-miterlimit:4;stroke-dasharray:none;stroke-opacity:1"
         id="rect6258"
         width="583.31689"
         height="106.7"
         x="0.19328834"
         y="7.3271232" />
      <path
         style="fill:#ffffff;fill-opacity:1"
         class="mlh-localhost-svg-animated"
         d="M -13.689829,-4.0728845 V 125.32712 H 594.91017 V -4.0728845 Z m 61.7,85.7000005 c 0,0.3 -0.1,0.5 -0.3,0.7 -0.2,0.2 -0.4,0.3 -0.7,0.3 h -7.4 c -0.3,0 -0.5,-0.1 -0.7,-0.3 -0.2,-0.2 -0.3,-0.4 -0.3,-0.7 v -27 h -5.9 v 27 c 0,0.3 -0.1,0.5 -0.3,0.7 -0.2,0.2 -0.4,0.3 -0.7,0.3 h -6.7 c -0.3,0 -0.5,-0.1 -0.7,-0.3 -0.2,-0.2 -0.3,-0.4 -0.3,-0.7 v -27 h -5.9 v 27 c 0,0.7 -0.3,1 -1,1 H 9.8101708 c -0.7,0 -1,-0.3 -1,-1 v -35 c 0,-0.7 0.3,-1 1,-1 H 41.710171 c 0.8,0 1.6,0.2 2.4,0.5 0.8,0.3 1.4,0.8 2,1.3 0.5,0.5 1,1.2 1.3,2 0.3,0.8 0.5,1.6 0.5,2.4 v 29.8 z m 33.2,-0.1 c 0,0.3 -0.1,0.5 -0.3,0.7 -0.2,0.2 -0.4,0.3 -0.7,0.3 h -22.8 c -0.7,0 -1,-0.3 -1,-1 v -35 c 0,-0.7 0.3,-1 1,-1 h 7.3 c 0.7,0 1,0.3 1,1 v 26.1 c 0,0.3 0.1,0.5 0.3,0.7 0.2,0.2 0.4,0.3 0.7,0.3 h 13.5 c 0.3,0 0.5,0.1 0.7,0.3 0.2,0.2 0.3,0.4 0.3,0.7 z m 36.099999,0.1 c 0,0.3 -0.1,0.5 -0.3,0.7 -0.2,0.2 -0.4,0.3 -0.7,0.3 h -7.4 c -0.3,0 -0.5,-0.1 -0.7,-0.3 -0.2,-0.2 -0.3,-0.4 -0.3,-0.7 v -12.2 c 0,-0.3 -0.1,-0.5 -0.3,-0.7 -0.2,-0.2 -0.4,-0.3 -0.7,-0.3 H 96.610171 c -0.3,0 -0.5,0.1 -0.7,0.3 -0.2,0.2 -0.3,0.4 -0.3,0.7 v 12.2 c 0,0.7 -0.3,1 -1,1 h -7.3 c -0.7,0 -1,-0.3 -1,-1 v -35 c 0,-0.7 0.3,-1 1,-1 h 7.3 c 0.7,0 1,0.3 1,1 v 11.8 c 0,0.7 0.3,1 1,1 h 10.299999 c 0.3,0 0.5,-0.1 0.7,-0.3 0.2,-0.2 0.3,-0.4 0.3,-0.7 v -11.8 c 0,-0.3 0.1,-0.5 0.3,-0.7 0.2,-0.2 0.4,-0.3 0.7,-0.3 h 7.4 c 0.3,0 0.5,0.1 0.7,0.3 0.2,0.2 0.3,0.4 0.3,0.7 z m 466.2,32.400004 h -446.8 V 7.3271155 h 446.8 z"
         id="path6260" />
    </g>
    <path
       style="display:inline;fill:#ffffff;fill-opacity:1;stroke-width:0.26458332"
       id="path6264"
       d="m -58.616546,-126.14813 h 3.201458 v 20.21417 h -3.201458 z m 9.286875,13.25563 c 0,1.45521 0.291041,2.61937 0.899583,3.43958 0.608542,0.82021 1.455208,1.24354 2.513542,1.24354 1.084791,0 1.931458,-0.42333 2.513541,-1.27 0.608542,-0.84666 0.899584,-2.06375 0.899584,-3.70416 0,-1.42875 -0.3175,-2.56646 -0.926042,-3.41313 -0.608542,-0.84666 -1.455208,-1.27 -2.513542,-1.27 -1.031875,0 -1.878541,0.42334 -2.487083,1.24354 -0.608542,0.84667 -0.899583,2.06375 -0.899583,3.73063 m -3.201459,-0.29104 c 0,-1.40229 0.264584,-2.64584 0.820209,-3.75709 0.555625,-1.11125 1.322916,-1.98437 2.328333,-2.56645 1.005417,-0.60855 2.143125,-0.89959 3.439583,-0.89959 1.931459,0 3.4925,0.60854 4.683125,1.85209 1.190625,1.24354 1.852084,2.88395 1.931459,4.92125 v 0.74083 c 0,1.40229 -0.264584,2.64583 -0.820209,3.75708 -0.529166,1.11125 -1.322916,1.95792 -2.328333,2.56646 -1.005417,0.60854 -2.169583,0.89958 -3.4925,0.89958 -2.010833,0 -3.624792,-0.66145 -4.815417,-2.01083 -1.217083,-1.34937 -1.799166,-3.12208 -1.799166,-5.34458 v -0.15875 z m 21.775209,4.97416 c 0.79375,0 1.455208,-0.23812 1.984375,-0.68791 0.529166,-0.47625 0.820208,-1.03188 0.846666,-1.71979 h 3.01625 c -0.02646,0.87312 -0.3175,1.71979 -0.820208,2.48708 -0.529167,0.76729 -1.217083,1.37583 -2.116667,1.82562 -0.873125,0.4498 -1.852083,0.66146 -2.8575,0.66146 -1.984375,0 -3.571875,-0.635 -4.736041,-1.93146 -1.164167,-1.29645 -1.74625,-3.06916 -1.74625,-5.34458 v -0.34396 c 0,-2.16958 0.582083,-3.88937 1.74625,-5.21229 1.164166,-1.29646 2.725208,-1.95792 4.736041,-1.95792 1.693334,0 3.069167,0.50271 4.1275,1.48167 1.058334,0.97896 1.613959,2.27542 1.666875,3.88938 h -3.01625 c -0.02646,-0.82021 -0.3175,-1.48167 -0.846666,-2.01084 -0.529167,-0.52916 -1.190625,-0.79375 -1.984375,-0.79375 -1.031875,0 -1.825625,0.37042 -2.407709,1.13771 -0.555625,0.74083 -0.846666,1.87854 -0.846666,3.41313 v 0.5027 c 0,1.53459 0.291041,2.69875 0.846666,3.46605 0.555625,0.74083 1.375834,1.1377 2.407709,1.1377 m 13.255625,-0.0265 c 0.635,0 1.217083,-0.15875 1.772708,-0.44979 0.555625,-0.3175 0.978958,-0.71437 1.243542,-1.24354 v -2.67229 h -1.693334 c -1.190625,0 -2.06375,0.21167 -2.672291,0.60854 -0.608542,0.42333 -0.899584,1.00542 -0.899584,1.74625 0,0.60854 0.211667,1.11125 0.608542,1.45521 0.423333,0.37042 0.9525,0.55562 1.640417,0.55562 m 3.518958,2.30188 c -0.132292,-0.26458 -0.264583,-0.71437 -0.370417,-1.32292 -1.005416,1.05834 -2.275416,1.5875 -3.730625,1.5875 -1.42875,0 -2.592916,-0.39687 -3.4925,-1.21708 -0.899583,-0.82021 -1.349375,-1.82562 -1.349375,-3.01625 0,-1.50812 0.555625,-2.67229 1.693334,-3.4925 1.137708,-0.82021 2.751666,-1.21708 4.841875,-1.21708 h 1.957916 v -0.92604 c 0,-0.74084 -0.211666,-1.32292 -0.608541,-1.77271 -0.423334,-0.44979 -1.031875,-0.66146 -1.878542,-0.66146 -0.740833,0 -1.322917,0.18521 -1.799167,0.55562 -0.47625,0.37042 -0.687916,0.82021 -0.687916,1.37584 h -3.201459 c 0,-0.79375 0.264584,-1.50813 0.767292,-2.19604 0.529167,-0.68792 1.217083,-1.21709 2.116667,-1.5875 0.899583,-0.39688 1.878541,-0.58209 2.989791,-0.58209 1.666875,0 2.989792,0.42334 3.995209,1.24354 0.978958,0.84667 1.508125,2.01084 1.534583,3.54542 v 6.42938 c 0,1.27 0.185208,2.30187 0.529167,3.06916 v 0.21167 h -3.307292 z m 6.2706248,-20.21417 h 3.201455 v 20.21417 h -3.201455 z m 9.313335,5.715 c -1.45521,0 -2.64584,0.52917 -3.65125,1.50813 v 2.38125 c 0.60854,-0.82021 1.45521,-1.27 2.54,-1.27 0.82021,0 1.45521,0.21167 1.87854,0.60854 0.42333,0.39688 0.635,1.11125 0.635,2.09021 v 9.18104 h 3.20146 v -9.28687 c -0.0265,-3.46605 -1.5875,-5.2123 -4.60375,-5.2123 m 10.4510402,7.54063 c 0,1.45521 0.29104,2.61937 0.89958,3.43958 0.60854,0.82021 1.45521,1.24354 2.51354,1.24354 1.0848,0 1.93146,-0.42333 2.51355,-1.27 0.60854,-0.84666 0.89958,-2.06375 0.89958,-3.70416 0,-1.42875 -0.3175,-2.56646 -0.92604,-3.41313 -0.60854,-0.84666 -1.45521,-1.27 -2.51354,-1.27 -1.03188,0 -1.87855,0.42334 -2.48709,1.24354 -0.60854,0.84667 -0.89958,2.06375 -0.89958,3.73063 m -3.2014602,-0.29104 c 0,-1.40229 0.26458,-2.64584 0.82021,-3.75709 0.5556202,-1.11125 1.3229202,-1.98437 2.3283302,-2.56645 1.00542,-0.60855 2.14313,-0.89959 3.43959,-0.89959 1.93145,0 3.4925,0.60854 4.68312,1.85209 1.19063,1.24354 1.85208,2.88395 1.93146,4.92125 v 0.74083 c 0,1.40229 -0.26458,2.64583 -0.82021,3.75708 -0.52917,1.11125 -1.32292,1.95792 -2.32833,2.56646 -1.00542,0.60854 -2.16959,0.89958 -3.4925,0.89958 -2.01084,0 -3.62479,-0.66145 -4.81542,-2.01083 -1.2170802,-1.34937 -1.7991702,-3.12208 -1.7991702,-5.34458 v -0.15875 z m 23.9183302,3.38666 c 0,-0.58208 -0.23812,-1.00541 -0.71437,-1.29645 -0.47625,-0.29105 -1.24354,-0.55563 -2.32833,-0.79375 -1.0848,-0.23813 -1.98438,-0.52917 -2.72521,-0.87313 -1.5875,-0.76729 -2.40771,-1.87854 -2.40771,-3.36021 0,-1.21708 0.52917,-2.24896 1.56104,-3.06916 1.03188,-0.82021 2.35479,-1.24355 3.94229,-1.24355 1.69334,0 3.06917,0.42334 4.1275,1.27 1.05834,0.84667 1.56104,1.93146 1.56104,3.28084 h -3.20145 c 0,-0.60854 -0.23813,-1.13771 -0.68792,-1.53459 -0.44979,-0.39687 -1.05833,-0.60854 -1.82563,-0.60854 -0.71437,0 -1.27,0.15875 -1.71979,0.47625 -0.44979,0.3175 -0.66146,0.76729 -0.66146,1.29646 0,0.50271 0.21167,0.87313 0.60855,1.13771 0.42333,0.26458 1.24354,0.55562 2.51354,0.82021 1.24354,0.26458 2.24896,0.60854 2.96333,0.97896 0.71438,0.37041 1.24354,0.84666 1.5875,1.37583 0.34396,0.52917 0.52917,1.19062 0.52917,1.95792 0,1.27 -0.52917,2.32833 -1.5875,3.12208 -1.05834,0.79375 -2.46063,1.19062 -4.18042,1.19062 -1.16417,0 -2.19604,-0.21166 -3.12208,-0.635 -0.92604,-0.42333 -1.61396,-1.00541 -2.14313,-1.74625 -0.50271,-0.74083 -0.76729,-1.53458 -0.76729,-2.38125 h 3.09563 c 0.0529,0.7673 0.3175,1.32292 0.84666,1.74625 0.52917,0.39688 1.21709,0.60855 2.09021,0.60855 0.84667,0 1.48167,-0.15875 1.93146,-0.47625 0.50271,-0.3175 0.71437,-0.71438 0.71437,-1.24355 m 9.92188,-13.8377 v 3.46604 h 2.51354 v 2.38125 h -2.51354 v 7.9375 c 0,0.55562 0.10583,0.92604 0.3175,1.19062 0.21167,0.23813 0.60854,0.37042 1.16417,0.37042 0.37041,0 0.74083,-0.0529 1.11125,-0.13229 v 2.48708 c -0.74084,0.21167 -1.42875,0.29104 -2.11667,0.29104 -2.46063,0 -3.67771,-1.34937 -3.67771,-4.07458 v -8.06979 h -2.35479 v -2.38125 h 2.35479 v -3.46604 z"
       class="mlh-localhost-svg-animated" />
  </g>
</svg>
